<?xml version="1.0" encoding="UTF-8"?>
<svg width="16px" height="17px" viewBox="0 0 16 17" version="1.1" xmlns="http://www.w3.org/2000/svg" xmlns:xlink="http://www.w3.org/1999/xlink">
    <!-- Generator: Sketch 52.2 (67145) - http://www.bohemiancoding.com/sketch -->
    <title>分组 5</title>
    <desc>Created with Sketch.</desc>
    <g id="Page-1" stroke="none" stroke-width="1" fill="none" fill-rule="evenodd">
        <g id="分组-5" fill="#A7B7C7" fill-rule="nonzero">
            <g id="皮肤">
                <path d="M14.6814458,3.89599109 C15.606747,5.10757238 16.0385542,6.68262806 15.9768675,8.43942094 C15.9768675,9.65100223 15.6684337,10.9231626 15.0515663,12.0135857 C14.866506,12.3164811 14.5580723,12.4376392 14.2496386,12.3164811 C14.0028916,12.255902 13.7561446,12.1953229 13.5093976,12.1953229 C12.5224096,12.1953229 11.7204819,12.8616927 11.7204819,13.6492205 C11.7204819,13.8915367 11.7821687,14.133853 11.9672289,14.3761693 C12.0289157,14.4973274 12.0906024,14.6790646 12.0289157,14.8608018 C11.9672289,14.9819599 11.9055422,15.1636971 11.7204819,15.2242762 C10.6718072,15.7694878 9.56144578,16.011804 8.38939759,16.0723831 C8.08096386,16.0723831 7.77253012,15.7694878 7.77253012,15.4665924 C7.77253012,15.1636971 8.01927711,14.8608018 8.38939759,14.8608018 C9.1913253,14.8608018 9.93156627,14.6790646 10.6718072,14.3761693 C10.6101205,14.133853 10.5484337,13.8309577 10.5484337,13.5886414 C10.5484337,12.1347439 11.9055422,10.9231626 13.5710843,10.9231626 C13.8178313,10.9231626 14.0028916,10.9231626 14.2496386,10.9837416 C14.619759,10.1962138 14.8048193,9.3481069 14.8048193,8.43942094 C14.8048193,6.92494432 14.4346988,5.65278396 13.6944578,4.62293987 C13.5093976,4.38062361 13.5710843,3.95657016 13.8178313,3.77483296 C14.0645783,3.59309577 14.4963855,3.65367483 14.6814458,3.89599109 Z M1.72722892,12.0741648 C1.60385542,12.1347439 1.54216867,12.1347439 1.41879518,12.1347439 C1.23373494,12.1347439 0.986987952,12.0135857 0.863614458,11.8318486 C0.246746988,10.6808463 -2.22932783e-13,9.65100223 -2.22932783e-13,8.43942094 C-2.22932783e-13,4.19888641 3.51614458,0.745879733 7.83421687,0.745879733 C8.32771084,0.745879733 8.94457831,0.806458797 9.37638554,0.867037862 C9.68481928,0.927616927 9.93156627,1.29109131 9.86987952,1.59398664 C9.80819277,1.89688196 9.43807229,2.13919822 9.12963855,2.07861915 C8.82120482,2.01804009 8.2660241,1.95746102 7.83421687,1.95746102 C4.1946988,1.95746102 1.23373494,4.86525612 1.23373494,8.43942094 C1.23373494,9.40868597 1.48048193,10.3173719 1.9739759,11.286637 C2.15903614,11.5289532 2.03566265,11.8924276 1.72722892,12.0741648 Z M2.46746988,6.98552339 C2.46746988,6.48366998 2.88174134,6.07683742 3.39277108,6.07683742 C3.90380083,6.07683742 4.31807229,6.48366998 4.31807229,6.98552339 C4.31807229,7.48737679 3.90380083,7.89420935 3.39277108,7.89420935 C2.88174134,7.89420935 2.46746988,7.48737679 2.46746988,6.98552339 Z M4.31807229,4.25946548 C4.31807229,3.92489654 4.59425326,3.65367483 4.93493976,3.65367483 C5.27562626,3.65367483 5.55180723,3.92489654 5.55180723,4.25946548 C5.55180723,4.59403441 5.27562626,4.86525612 4.93493976,4.86525612 C4.59425326,4.86525612 4.31807229,4.59403441 4.31807229,4.25946548 Z M8.2660241,12.1347439 C8.08096386,12.4376392 7.77253012,12.6799555 7.40240964,12.8011136 C7.40240964,12.9222717 7.58746988,14.7396437 6.53879518,15.9512249 C5.86024096,16.6781737 5.05831325,16.981069 4.25638554,16.981069 C3.20771084,16.981069 2.0973494,16.4358575 1.48048193,16.011804 C1.29542169,15.8906459 1.17204819,15.6483296 1.23373494,15.4060134 C1.29542169,15.1636971 1.48048193,14.9819599 1.72722892,14.9213808 C1.72722892,14.9213808 2.03566265,14.8608018 2.34409639,14.4367483 L2.40578313,14.3761693 C2.40578313,14.4367483 2.34409639,14.3761693 2.34409639,14.3155902 C2.22072289,14.0126949 1.9739759,13.5886414 2.15903614,12.7405345 C2.40578313,11.5289532 3.57783133,11.1048998 4.37975904,11.0443207 C4.37975904,10.9837416 4.31807229,10.9231626 4.31807229,10.8625835 C4.25638554,10.5596882 4.31807229,10.1962138 4.50313253,9.89331849 C4.56481928,9.89331849 4.56481928,9.83273942 4.56481928,9.83273942 L12.0906024,0.44298441 C12.4607229,-0.0416481069 13.0775904,-0.102227171 13.5710843,0.200668151 C14.0645783,0.503563474 14.1879518,1.10935412 14.0028916,1.59398664 L8.2660241,12.1347439 Z M5.55180723,10.5596882 L5.55180723,10.6808463 L7.0939759,11.5895323 C7.0939759,11.6501114 7.15566265,11.5895323 7.2173494,11.5289532 L12.3373494,2.01804009 L5.55180723,10.5596882 Z M5.61349398,15.1636971 C6.1686747,14.5579065 6.23036145,13.6492205 6.23036145,13.164588 L4.50313253,12.255902 C4.1946988,12.3164811 3.45445783,12.4376392 3.33108434,12.9828508 C3.26939759,13.4069042 3.33108434,13.6492205 3.45445783,13.8309577 C3.57783133,14.0732739 3.82457831,14.5579065 3.39277108,15.1636971 C3.26939759,15.2848552 3.20771084,15.4060134 3.08433735,15.5271715 C3.82457831,15.8300668 4.87325301,16.011804 5.61349398,15.1636971 Z" id="Combined-Shape"></path>
            </g>
        </g>
    </g>
</svg>