<svg xmlns="http://www.w3.org/2000/svg" xmlns:xlink="http://www.w3.org/1999/xlink" fill="none" version="1.1" width="60" height="31" viewBox="0 0 60 31"><g><g><path d="M21.720306396484375,30.9611C21.814537396484376,30.9806,21.847588396484376,30.9931,21.879936396484375,30.9931C24.303226396484376,30.9944,26.727216396484376,30.9931,29.150506396484374,31C29.326316396484376,31.0007,29.430396396484376,30.9208,29.535876396484376,30.8084C30.203226396484375,30.1015,30.859336396484373,29.3842,31.542856396484375,28.6927C32.479506396484375,27.7442,33.39650639648438,26.7776,34.31990639648438,25.8174C35.218606396484375,24.8821,36.12430639648437,23.9537,37.01600639648437,23.0122C38.108106396484374,21.8596,39.23260639648437,20.7361,40.327506396484374,19.5863C40.555306396484376,19.3467,40.67980639648437,19.3356,40.924506396484375,19.5786C44.54960639648438,23.176,48.188006396484376,26.761,51.81800639648438,30.3536C51.97770639648438,30.5119,52.13310639648438,30.5973,52.365206396484375,30.5841C52.73650639648437,30.5632,53.112006396484375,30.523,53.476906396484374,30.5257C54.69280639648437,30.5355,55.90450639648437,30.448,57.118206396484375,30.4376C58.039406396484374,30.4299,58.96060639648437,30.3931,59.88120639648437,30.3688C59.92830639648437,30.3674,59.973306396484375,30.3619,60.00000639648437,30.2209C59.929006396484375,30.1654,59.80940639648438,30.0897,59.71100639648437,29.9925C54.866506396484375,25.2119,50.023406396484376,20.4299,45.18040639648437,15.6479C44.63610639648438,15.1105,44.62130639648437,15.0966,45.16000639648438,14.5536C46.10720639648437,13.5989,47.036206396484374,12.6282,47.95950639648437,11.6512C48.74780639648438,10.8159,49.56850639648437,10.0105,50.372906396484375,9.19043C50.444006396484376,9.11752,50.508006396484376,9.03767,50.57480639648438,8.96199C51.44820639648438,9.698,52.320906396484375,10.434,53.19430639648438,11.1693C53.25400639648437,11.2193,53.30470639648438,11.3318,53.38480639648438,11.2922C53.46290639648437,11.2533,53.46780639648438,11.1423,53.476906396484374,11.0457C53.52050639648438,10.5909,53.56910639648437,10.1368,53.62950639648437,9.68342C53.760306396484374,8.70022,53.872906396484375,7.71424,54.046506396484375,6.73798C54.15060639648438,6.15403,54.03460639648438,5.52079,54.40870639648438,4.99169C54.43610639648438,4.95281,54.457906396484375,4.91184,54.405906396484376,4.87573C54.24350639648438,4.76394,54.308906396484375,4.59591,54.327106396484375,4.46329C54.524006396484374,2.98779,54.732906396484374,1.51438,54.94390639648437,0C54.72020639648437,0.0590198,54.544406396484376,0.10207,54.371406396484375,0.152757C53.12320639648438,0.51868,51.87710639648438,0.891547,50.62750639648438,1.25261C48.460206396484374,1.87822,46.29150639648438,2.49758,44.122706396484375,3.11694C44.033406396484374,3.14263,43.909706396484374,3.14194,43.87660639648438,3.22109C43.836506396484374,3.31692,43.95820639648437,3.37385,44.02220639648438,3.42801C44.73730639648437,4.02724,45.456006396484376,4.62368,46.17820639648437,5.21458C46.320306396484376,5.33053,46.302706396484375,5.39927,46.188806396484374,5.53814C45.615006396484375,6.23736,44.93640639648437,6.83866,44.317506396484376,7.49483C43.34010639648437,8.53149,42.34500639648438,9.55288,41.35140639648438,10.575C40.51170639648437,11.4387,39.68610639648438,12.3164,38.84930639648438,13.1823C37.90700639648438,14.1571,36.967506396484374,15.1348,36.02590639648437,16.1096C35.15600639648437,17.0095,34.29380639648437,17.9156,33.424706396484375,18.8155C32.483106396484374,19.7911,31.541456396484374,20.7667,30.601256396484374,21.7429C29.717306396484375,22.6608,28.835476396484374,23.5809,27.950126396484375,24.4974C27.008516396484374,25.473,26.061976396484376,26.4437,25.129516396484377,27.4276C24.346826396484374,28.2525,23.520546396484374,29.0364,22.747716396484375,29.8703C22.416492396484376,30.2237,22.065587396484375,30.5598,21.720306396484375,30.9611Z" fill="#EDD44E" fill-opacity="1"/></g><g><path d="M19.9981310345459,29.481475830459594C20.034691034545897,29.452275830459595,20.064231034545898,29.433575830459596,20.088841034545897,29.408575830459593C21.3665910345459,28.123975830459596,22.6422010345459,26.837375830459596,23.924901034545897,25.557675830459594C24.052901034545897,25.429875830459594,24.0684010345459,25.350775830459593,23.9270010345459,25.227175830459593C23.5965010345459,24.937575830459593,23.2786010345459,24.633475830459595,22.952301034545897,24.339775830459594C22.4551710345459,23.891875830459593,21.9748810345459,23.422575830459596,21.450981034545897,23.005975830459594C20.2315910345459,22.035975830459595,19.3638210345459,20.827775830459593,18.8525810345459,19.372375830459596C18.384941034545896,18.040675830459595,18.3097010345459,16.681775830459593,18.5649710345459,15.292375830459594C18.951741034545897,13.184375830459595,20.0825110345459,11.526225830459595,21.7948510345459,10.289585830459595C23.6183010345459,8.972405830459595,25.6907010345459,8.486355830459594,27.9438010345459,8.883525830459595C29.391001034545898,9.139045830459594,30.723601034545897,9.686195830459596,31.781301034545898,10.686065830459594C33.248901034545895,12.074765830459596,34.717201034545894,13.468975830459595,36.0730010345459,14.969475830459595C36.2270010345459,15.139675830459595,36.3501010345459,15.180575830459595,36.5266010345459,14.988275830459594C36.8775010345459,14.604275830459594,37.2537010345459,14.244575830459596,37.6074010345459,13.861975830459595C38.3788010345459,13.028075830459596,39.1974010345459,12.236545830459594,39.989901034545895,11.422075830459594C40.4140010345459,10.986715830459595,40.4196010345459,11.000605830459595,39.9885010345459,10.569415830459594C38.9435010345459,9.524415830459596,37.8641010345459,8.512045830459595,36.8458010345459,7.442745830459595C36.3276010345459,6.898375830459594,35.7889010345459,6.379695830459594,35.1982010345459,5.924205830459595C33.765001034545904,4.818795830459595,32.175101034545904,4.005715830459595,30.414201034545897,3.5161938304595948C29.2764010345459,3.200263830459595,28.1217010345459,3.024593230459595,26.945201034545896,2.980849270459595C26.1787010345459,2.951686630459595,25.4164010345459,3.013483830459595,24.6527010345459,3.1079158304595946C23.7596010345459,3.2183178304595947,22.8862010345459,3.4134298304595947,22.0416810345459,3.6981138304595946C20.6661810345459,4.1612458304595945,19.383511034545897,4.815325830459595,18.2140610345459,5.680485830459595C17.0671110345459,6.528985830459595,16.0727610345459,7.520515830459595,15.226791034545899,8.660635830459594C14.495441034545898,9.646615830459595,13.911771034545898,10.711055830459594,13.473663034545899,11.852575830459594C12.998991034545899,13.088475830459595,12.6691809345459,14.368175830459595,12.605187834545898,15.685375830459595C12.5552588345459,16.713675830459593,12.553149234545899,17.746875830459594,12.713483034545899,18.781475830459595C12.925855034545899,20.150075830459595,13.305593034545899,21.457475830459593,13.903331034545898,22.702475830459594C14.719761034545899,24.402975830459596,15.829441034545898,25.884675830459596,17.2977610345459,27.103975830459596C18.2210910345459,27.869175830459596,19.100111034545897,28.686375830459596,19.9981310345459,29.481475830459594Z" fill="#EDD44E" fill-opacity="1"/></g><g><path d="M2.09067,30.94511439399719C2.67293,30.94511439399719,3.24535,30.94511439399719,3.81777,30.94511439399719C5.46823,30.94511439399719,7.11868,30.94651439399719,8.76984,30.942314393997194C8.90063,30.942314393997194,9.1116,31.020114393997194,9.08347,30.757014393997192C9.04269,30.375114393997194,9.15309,30.005014393997193,9.16153,29.625914393997192C9.18122,28.789914393997194,9.23748,27.95531439399719,9.28319,27.119914393997192C9.33733,26.147214393997192,9.38375,25.173014393997192,9.42664,24.198814393997193C9.46673,23.29411439399719,9.53001,22.39001439399719,9.56447,21.485314393997193C9.60526,20.40701439399719,9.67417,19.330014393997192,9.71777,18.252414393997192C9.74942,17.462914393997192,9.80357,16.674114393997193,9.84576,15.885314393997193C9.89991,14.877814393997193,9.94351,13.869014393997192,9.98992,12.860074393997193C10.03,11.990054393997193,10.0891,11.120724393997193,10.1278,10.250704393997193C10.1728,9.253614393997193,10.2339,8.257224393997191,10.267,7.260134393997192C10.2923,6.478984393997193,10.3239,5.694374393997192,10.3753,4.917394393997192C10.4126,4.3494143939971925,10.3247,3.7696313939971926,10.4857,3.207900393997192C10.5363,3.032229993997192,10.4407,2.972515779997192,10.2571,2.973210013997192C8.18546,2.9787649439971924,6.11308,2.9787649439971924,4.0414,2.9718212807171924C3.8888,2.9711270459971924,3.81144,3.0238975939971926,3.74604,3.1467973939971925C3.17925,4.2119343939971925,2.61457,5.278454393997192,2.03793,6.338734393997193C1.65749,7.038634393997192,1.25313,7.726044393997192,0.870584,8.425254393997193C0.57242,8.971714393997193,0.291836,9.527194393997192,0,10.084064393997192C0.166663,10.161824393997193,0.310119,10.143084393997192,0.443028,10.127104393997193C1.27001,10.026424393997193,2.09981,9.969494393997191,2.93101,9.914634393997193C3.09979,9.903524393997191,3.10752,9.948664393997191,3.10612,10.077814393997192C3.09979,10.524974393997192,3.06533,10.971444393997192,3.04705,11.417214393997192C3.00977,12.310844393997192,2.94789,13.203114393997192,2.90429,14.096014393997192C2.85647,15.081314393997193,2.81147,16.06661439399719,2.76224,17.051914393997194C2.71794,17.94481439399719,2.6666,18.837714393997192,2.62371,19.730714393997193C2.57659,20.70411439399719,2.53018,21.67831439399719,2.48236,22.651814393997192C2.43806,23.556514393997194,2.38532,24.460614393997194,2.34242,25.364614393997194C2.29601,26.327014393997192,2.23764,27.28941439399719,2.20529,28.251014393997192C2.17857,29.055114393997194,2.07238,29.85781439399719,2.1188,30.66461439399719C2.12302,30.74381439399719,2.10333,30.823614393997193,2.09067,30.94511439399719Z" fill="#EDD44E" fill-opacity="1"/></g></g></svg>