<svg width="785" height="401" viewBox="0 0 785 401" version="1.1" xmlns="http://www.w3.org/2000/svg" xmlns:xlink="http://www.w3.org/1999/xlink">
<title>Slice</title>
<desc>Created using Figma</desc>
<g id="Canvas" transform="translate(-10499 -15388)">
<clipPath id="clip-0" clip-rule="evenodd">
<path d="M 9949 15272L 11869 15272L 11869 16172L 9949 16172L 9949 15272Z" fill="#FFFFFF"/>
</clipPath>
<g id="404" clip-path="url(#clip-0)">
<g id="Group 4">
<g id="Group 2">
<g id="Path 5">
<use xlink:href="#path0_fill" transform="translate(10715 15398)" fill="url(#paint0_linear)" fill-opacity="0.4"/>
</g>
<g id="404">
<use xlink:href="#path1_fill" transform="translate(10709 15369)" fill="url(#paint1_radial)"/>
</g>
</g>
<g id="Group">
<g id="Path 4">
<use xlink:href="#path2_fill" transform="translate(10658 15617)" fill="url(#paint2_linear)" fill-opacity="0.4"/>
</g>
<g id="Group 3">
<g id="Combined Shape">
<use xlink:href="#path3_fill" transform="translate(10859.6 15617)" fill="#7D83AB"/>
</g>
<g id="Oval 3">
<use xlink:href="#path4_fill" transform="translate(10726.4 15637.7)" fill="#7D83AB"/>
</g>
<g id="Oval 3">
<use xlink:href="#path4_fill" transform="translate(10902.8 15637.7)" fill="#7D83AB"/>
</g>
<g id="Combined Shape">
<use xlink:href="#path5_fill" transform="translate(11083.7 15617)" fill="#7D83AB"/>
</g>
<g id="Rectangle 6">
<use xlink:href="#path6_fill" transform="translate(10967.6 15638.6)" fill="#7D83AB"/>
</g>
<g id="Combined Shape">
<use xlink:href="#path7_fill" transform="translate(11027 15638.6)" fill="#7D83AB"/>
</g>
<g id="Rectangle 15">
<use xlink:href="#path8_fill" transform="translate(10788.5 15639.5)" fill="#7D83AB"/>
</g>
<g id="Rectangle 2">
<use xlink:href="#path9_fill" transform="translate(10798.4 15617)" fill="#7D83AB"/>
</g>
<g id="Path 2">
<use xlink:href="#path10_fill" transform="translate(10658.7 15618.3)" fill="#7D83AB"/>
</g>
</g>
</g>
</g>
</g>
</g>
<defs>
<linearGradient id="paint0_linear" x1="0" y1="0" x2="1" y2="0" gradientUnits="userSpaceOnUse" gradientTransform="matrix(-7.43511e-06 178.644 -436.982 -3.03958e-06 201.184 6.19095)">
<stop offset="0" stop-color="#A5ACD4" stop-opacity="0.6"/>
<stop offset="0.436567" stop-color="#B2B7D6" stop-opacity="0.266559"/>
<stop offset="1" stop-color="#DCE0F2" stop-opacity="0.01"/>
</linearGradient>
<radialGradient id="paint1_radial" cx="0.5" cy="0.5" r="0.5" gradientUnits="userSpaceOnUse" gradientTransform="matrix(273.511 502.675 -912.355 150.695 421.544 -310.865)">
<stop offset="0" stop-color="#848AB0"/>
<stop offset="1" stop-color="#393E5A"/>
</radialGradient>
<linearGradient id="paint2_linear" x1="0" y1="0" x2="1" y2="0" gradientUnits="userSpaceOnUse" gradientTransform="matrix(-1.44569e-06 156.889 -573.132 -3.95742e-07 145.755 -3.52201e-15)">
<stop offset="0" stop-color="#A5ACD4" stop-opacity="0.6"/>
<stop offset="0.525247" stop-color="#B2B7D6" stop-opacity="0.266559"/>
<stop offset="1" stop-color="#DCE0F2" stop-opacity="0.01"/>
</linearGradient>
<path id="path0_fill" fill-rule="evenodd" d="M 543.034 222L 327.826 0L 314.56 0L 266.405 63.7083L 202.132 5.4937L 162.741 5.4937L 131.692 40.7198L 85.3946 0L 73.5437 0L 0 111L 119.283 222L 543.034 222Z"/>
<path id="path1_fill" d="M 78.8 29.2L 90.6 29.2L 90.6 128.4L 114.8 128.4L 114.8 138.6L 90.6 138.6L 90.6 172L 78.8 172L 78.8 138.6L 5.2 138.6L 5.2 126.8L 78.8 29.2ZM 78.2 45.8L 16.2 128.4L 78.8 128.4L 78.8 45.8L 78.2 45.8ZM 180.922 26.4C 198.122 26.4 210.922 34.2667 219.322 50C 226.255 62.8 229.722 79.6667 229.722 100.6C 229.722 121.267 226.255 138.133 219.322 151.2C 210.789 166.933 197.989 174.8 180.922 174.8C 163.855 174.8 151.055 166.933 142.522 151.2C 135.589 138.533 132.122 121.667 132.122 100.6C 132.122 79.4 135.589 62.5333 142.522 50C 150.922 34.2667 163.722 26.4 180.922 26.4ZM 180.922 37.2C 167.055 37.2 157.122 44.2667 151.122 58.4C 146.722 68.8 144.522 82.8667 144.522 100.6C 144.522 118.067 146.722 132.133 151.122 142.8C 157.122 156.933 167.055 164 180.922 164C 194.522 164 204.455 156.933 210.722 142.8C 215.255 131.867 217.522 117.8 217.522 100.6C 217.522 83.1333 215.255 69.0667 210.722 58.4C 204.589 44.2667 194.655 37.2 180.922 37.2ZM 320.644 29.2L 332.444 29.2L 332.444 128.4L 356.644 128.4L 356.644 138.6L 332.444 138.6L 332.444 172L 320.644 172L 320.644 138.6L 247.044 138.6L 247.044 126.8L 320.644 29.2ZM 320.044 45.8L 258.044 128.4L 320.644 128.4L 320.644 45.8L 320.044 45.8Z"/>
<path id="path2_fill" fill-rule="evenodd" d="M 620.162 169.763L 480.286 0L 473.837 0L 473.837 32.371C 473.837 32.371 463.585 20.7758 450.856 20.8888C 438.128 21.0017 425.901 37.9249 426.121 46.5259L 411.257 31.3108L 395.885 22.2849L 380.325 27.3172L 375.745 21.2849L 369.015 21.2849L 369.015 39.4711L 353.672 22.2849L 348.088 59.0105L 316.024 22.2849L 309.766 52.4505L 284.52 25.0964L 256.134 26.4627L 234.898 0.375434L 201.449 0.375434L 201.449 62.0773L 147.082 0L 140.006 29.0558L 130.987 29.0558L 140.006 39.4711L 140.006 60.2097L 110.696 27.3172L 78.6264 28.3172L 54.0737 1.37543L 48.6898 64.3965L 0 0L 0 82.1972L 68.75 169.763L 620.162 169.763Z"/>
<path id="path3_fill" fill-rule="evenodd" d="M 7.2002 0L 34.2002 0L 34.2002 7.19531L 7.2002 7.19531L 7.2002 35.0801L 34.2002 35.0801L 34.2002 42.2754L 7.2002 42.2754L 7.2002 81.8516L 0 81.8516L 0 42.2754L 0 35.0801L 0 7.19531L 0 0L 7.2002 0Z"/>
<path id="path4_fill" fill-rule="evenodd" d="M 0 31.4824C 0 48.8691 12.0884 62.9629 27 62.9629C 41.9116 62.9629 54 48.8691 54 31.4824C 54 14.0957 41.9116 0 27 0C 12.0884 0 0 14.0957 0 31.4824ZM 46.8003 31.4805C 46.8003 45.1191 37.668 55.7676 27 55.7676C 16.3325 55.7676 7.2002 45.1191 7.2002 31.4805C 7.2002 17.8438 16.3325 7.19531 27 7.19531C 37.668 7.19531 46.8003 17.8438 46.8003 31.4805Z"/>
<path id="path5_fill" fill-rule="evenodd" d="M 54.9004 0L 47.7002 0L 47.7002 31.957C 42.7476 25.0684 35.3125 20.6875 27 20.6875C 12.0884 20.6875 0 34.7832 0 52.1699C 0 69.5566 12.0884 83.6504 27 83.6504C 35.3125 83.6504 42.7476 79.2715 47.7002 72.3828L 47.7002 81.8516L 54.9004 81.8516L 54.9004 0ZM 27 76.4551C 37.668 76.4551 46.8003 65.8066 46.8003 52.168C 46.8003 38.5312 37.668 27.8828 27 27.8828C 16.3325 27.8828 7.2002 38.5312 7.2002 52.168C 7.2002 65.8066 16.3325 76.4551 27 76.4551Z"/>
<path id="path6_fill" d="M 7.2 0L 7.2 39.5767C 7.2 48.0217 14.05 54.8677 22.5 54.8677C 30.95 54.8677 37.8 48.0217 37.8 39.5767L 37.8 0L 45 0L 45 39.5767C 45 51.9958 34.9264 62.0635 22.5 62.0635C 10.0736 62.0635 0 51.9958 0 39.5767L 0 0L 7.2 0Z"/>
<path id="path7_fill" fill-rule="evenodd" d="M 7.2002 0L 0 0L 0 22.4883L 0 62.0645L 7.2002 62.0645L 7.2002 22.4883C 7.2002 14.043 14.0498 7.19727 22.5 7.19727C 30.9502 7.19727 37.7998 14.043 37.7998 22.4883L 37.7998 62.0645L 45 62.0645L 45 22.4883C 45 10.0684 34.9263 0 22.5 0C 16.5913 0 11.2148 2.27734 7.2002 6L 7.2002 0Z"/>
<path id="path8_fill" fill-rule="evenodd" d="M 0 0L 26.1 0L 26.1 7.19577L 0 7.19577L 0 0Z"/>
<path id="path9_fill" fill-rule="evenodd" d="M 0 0L 7.2 0L 7.2 81.8519L 0 81.8519L 0 0Z"/>
<path id="path10_fill" fill-rule="evenodd" d="M 7.53391 81.0075L 0 81.0075L 0 0L 47.6266 61.8253L 47.6266 0L 54.9731 0L 54.9731 81.8519L 7.53391 20.6739L 7.53391 81.0075Z"/>
</defs>
</svg>
